<svg width="30" height="26" viewBox="0 0 30 26" fill="none" xmlns="http://www.w3.org/2000/svg">
<path d="M18.4128 0.0636726C17.6158 -0.185103 16.7861 0.317525 16.5564 1.18062L10.5559 23.9258C10.3262 24.7889 10.7903 25.6876 11.5872 25.9363C12.3842 26.1851 13.2139 25.6825 13.4436 24.8194L19.4441 2.07419C19.6738 1.21109 19.2097 0.312448 18.4128 0.0636726ZM22.1912 6.16121C21.6052 6.79584 21.6052 7.82648 22.1912 8.46112L26.3775 13L22.1865 17.5389C21.6005 18.1735 21.6005 19.2042 22.1865 19.8388C22.7725 20.4734 23.7241 20.4734 24.3101 19.8388L29.5605 14.1525C30.1465 13.5179 30.1465 12.4872 29.5605 11.8526L24.3101 6.16629C23.7241 5.53166 22.7725 5.53166 22.1865 6.16629L22.1912 6.16121ZM7.8135 6.16121C7.22752 5.52658 6.27588 5.52658 5.6899 6.16121L0.439487 11.8475C-0.146496 12.4821 -0.146496 13.5128 0.439487 14.1474L5.6899 19.8337C6.27588 20.4683 7.22752 20.4683 7.8135 19.8337C8.39949 19.1991 8.39949 18.1684 7.8135 17.5338L3.62255 13L7.8135 8.46112C8.39949 7.82648 8.39949 6.79584 7.8135 6.16121Z" fill="#B1B1B1"/>
</svg>
