<svg width="21" height="23" viewBox="0 0 21 23" fill="none" xmlns="http://www.w3.org/2000/svg">
<path d="M20.8333 7.29167V16.6667C20.8333 17.8125 19.8958 18.75 18.75 18.75H4.16667L0 22.9167V4.16667C0 3.02083 0.9375 2.08333 2.08333 2.08333H12.6042C12.5 2.39583 12.5 2.8125 12.5 3.125C12.5 6.04167 14.7917 8.33333 17.7083 8.33333C18.8542 8.33333 20 7.91667 20.8333 7.29167ZM14.5833 3.125C14.5833 4.89583 15.9375 6.25 17.7083 6.25C19.4792 6.25 20.8333 4.89583 20.8333 3.125C20.8333 1.35417 19.4792 0 17.7083 0C15.9375 0 14.5833 1.35417 14.5833 3.125Z" fill="#B1B1B1"/>
</svg>
