<svg width="25" height="25" viewBox="0 0 25 25" fill="none" xmlns="http://www.w3.org/2000/svg">
<path d="M24.7853 1.25045L23.7496 0.214663C23.5337 -0.00135204 23.2064 -0.0605316 22.9287 0.0654447L17.3655 2.52135C17.1466 2.62096 16.9907 2.8213 16.9478 3.05743C16.9052 3.2942 16.9806 3.53638 17.1506 3.70636L21.2937 7.84946C21.4636 8.01943 21.7058 8.09477 21.9426 8.05224C22.1787 8.00933 22.3791 7.85351 22.4787 7.63452L24.9345 2.07125C25.0605 1.79357 25.0013 1.46637 24.7853 1.25045Z" fill="#B1B1B1"/>
<path d="M4.73145 16.1255L0.642589 20.2143C-0.214196 21.0711 -0.214196 22.4649 0.642589 23.3216L1.67833 24.3574C2.53512 25.2142 3.92891 25.2142 4.78565 24.3574L8.87451 20.2685L4.73145 16.1255ZM4.27496 21.7711C3.98868 22.0573 3.52535 22.0573 3.23912 21.7711C2.95294 21.4848 2.95294 21.0215 3.23912 20.7353L5.25645 18.718C5.54273 18.4317 6.00601 18.4317 6.29219 18.718C6.57847 19.0043 6.57847 19.4675 6.29219 19.7537L4.27496 21.7711Z" fill="#B1B1B1"/>
<path d="M11.9819 17.1612L7.83877 13.0181C7.26772 12.4471 6.33823 12.4471 5.76724 13.0181C5.1962 13.5891 5.1962 14.5186 5.76724 15.0896L9.91035 19.2327C10.4813 19.8038 11.4108 19.8038 11.9819 19.2327C12.5529 18.6618 12.5529 17.7323 11.9819 17.1612Z" fill="#B1B1B1"/>
<path d="M19.2222 7.84941L17.1506 5.77784L11.464 11.4644C10.892 10.8924 9.96457 10.8924 9.39245 11.4644L8.87453 11.9824L13.0176 16.1255L13.5356 15.6076C14.1076 15.0354 14.1076 14.1081 13.5356 13.536L19.2222 7.84941Z" fill="#B1B1B1"/>
<path d="M23.7147 17.4979C22.5257 16.3089 21.096 16.0533 19.4554 16.3464L16.1257 13.017L15.3305 13.8121C15.5923 14.796 15.3378 15.8762 14.5709 16.6431L14.054 17.1599L16.3456 19.4513C16.1145 20.7443 16.1362 21.8409 16.9392 23.0303C17.8659 24.4034 19.4877 25.1839 21.1868 24.95C21.4677 24.9114 21.7024 24.7166 21.7926 24.4478C21.8829 24.1791 21.8133 23.8823 21.6129 23.6818L20.6056 22.6763V20.605H22.6791L23.6807 21.6067C23.8816 21.8076 24.1792 21.8767 24.4481 21.7857C24.7171 21.6947 24.9113 21.459 24.9491 21.1775C25.128 19.8452 24.6922 18.4749 23.7147 17.4979Z" fill="#B1B1B1"/>
<path d="M8.64427 5.53238C8.93495 3.90899 8.6996 2.48087 7.49276 1.27316C6.67162 0.452064 5.57299 1.43266e-05 4.39926 1.43266e-05C4.20166 1.43266e-05 4.00615 0.0129049 3.81318 0.038442C3.53139 0.0758443 3.29551 0.270278 3.20439 0.539564C3.11328 0.808753 3.18286 1.10641 3.38384 1.30738L4.39536 2.30885V4.39449H2.31367L1.30967 3.37642C1.10913 3.17589 0.812111 3.1065 0.543264 3.19698C0.274514 3.28746 0.08013 3.52232 0.041507 3.80333C-0.181637 5.42818 0.522414 7.07891 1.95889 8.04863C3.15283 8.85303 4.25605 8.87295 5.53935 8.6416L7.84017 10.9462L8.35721 10.4291C9.12411 9.66225 10.2042 9.40781 11.1881 9.66953L11.9829 8.87471L8.64427 5.53238Z" fill="#B1B1B1"/>
</svg>
