<svg width="25" height="25" viewBox="0 0 25 25" fill="none" xmlns="http://www.w3.org/2000/svg">
<path d="M16.3375 11.5625L15.2125 12.7125C14.3125 13.6125 13.75 14.375 13.75 16.25H11.25V15.625C11.25 14.2375 11.8125 12.9875 12.7125 12.0875L14.2625 10.5125C14.725 10.0625 15 9.4375 15 8.75C15 7.3625 13.875 6.25 12.5 6.25C11.837 6.25 11.2011 6.51339 10.7322 6.98223C10.2634 7.45107 10 8.08696 10 8.75H7.5C7.5 7.42392 8.02678 6.15215 8.96447 5.21447C9.90215 4.27678 11.1739 3.75 12.5 3.75C13.8261 3.75 15.0979 4.27678 16.0355 5.21447C16.9732 6.15215 17.5 7.42392 17.5 8.75C17.5 9.85 17.05 10.8375 16.3375 11.5625ZM13.75 21.25H11.25V18.75H13.75M12.5 0C10.8585 0 9.23303 0.323322 7.71646 0.951506C6.19989 1.57969 4.8219 2.50043 3.66117 3.66117C1.31696 6.00537 0 9.18479 0 12.5C0 15.8152 1.31696 18.9946 3.66117 21.3388C4.8219 22.4996 6.19989 23.4203 7.71646 24.0485C9.23303 24.6767 10.8585 25 12.5 25C15.8152 25 18.9946 23.683 21.3388 21.3388C23.683 18.9946 25 15.8152 25 12.5C25 5.5875 19.375 0 12.5 0Z" fill="#B1B1B1"/>
</svg>
