<svg width="25" height="24" viewBox="0 0 25 24" fill="none" xmlns="http://www.w3.org/2000/svg">
<path d="M11.9048 23.8095C12.8571 23.8095 13.8095 23.6905 14.6429 23.4524C14.1667 22.8571 13.6905 22.1429 13.4524 21.3095C12.9762 21.4286 12.381 21.4286 11.9048 21.4286C6.66667 21.4286 2.38095 17.1429 2.38095 11.9048C2.38095 6.66667 6.66667 2.38095 11.9048 2.38095C12.8571 2.38095 13.6905 2.5 14.5238 2.7381L16.4286 0.833333C15 0.357143 13.4524 0 11.9048 0C5.35714 0 0 5.35714 0 11.9048C0 18.4524 5.35714 23.8095 11.9048 23.8095ZM5.35714 11.3095L7.02381 9.64286L10.7143 13.3333L20.9524 3.09524L22.619 4.7619L10.7143 16.6667L5.35714 11.3095ZM20.2381 14.2857L18.7381 17.5595L15.4762 19.0476L18.7381 20.5476L20.2381 23.8095L21.7262 20.5476L25 19.0476L21.7262 17.5595L20.2381 14.2857Z" fill="#B1B1B1"/>
</svg>
