<svg width="29" height="28" viewBox="0 0 29 28" fill="none" xmlns="http://www.w3.org/2000/svg">
<path d="M17.7625 25.5802C15.2137 26.4267 12.4584 26.4535 9.89318 25.6568C7.32794 24.8601 5.08495 23.2811 3.48694 21.1468C1.88893 19.0125 1.01829 16.433 1.00029 13.7794C0.982283 11.1259 1.81785 8.53517 3.38675 6.37995C4.95566 4.22473 7.17703 2.61615 9.73123 1.78566C12.2854 0.955181 15.0408 0.945606 17.6009 1.75832C20.1609 2.57103 22.3937 4.16412 23.978 6.30839C25.5622 8.45265 26.4163 11.0375 26.4172 13.6911C26.3761 14.7083 26.2513 15.7204 26.044 16.7176M16.7043 23.2498C15.79 24.2747 14.7877 25.2198 13.7086 26.0745V1M19.6693 15.053C19.7129 14.2375 19.6975 13.42 19.6233 12.6066C19.2617 8.12598 17.1391 3.9624 13.7086 1.00504C11.8474 2.6058 10.3521 4.57853 9.32182 6.79254C8.29157 9.00655 7.74986 11.4113 7.7326 13.8475C7.7326 22.019 11.4542 24.4402 13.6933 26.0745M2.6512 7.51201H24.8274M2.99882 20.415H16.2851M1 13.8475L26.4172 13.5398M24.7354 26.2259L27 23.9863L22.9103 19.9509L25.2363 18.4831C25.2702 18.4633 25.2972 18.4338 25.3138 18.3986C25.3303 18.3633 25.3356 18.324 25.329 18.2857C25.3223 18.2474 25.304 18.212 25.2765 18.1842C25.249 18.1564 25.2136 18.1375 25.175 18.13L17.3586 16.3242C17.3264 16.3177 17.2929 16.3192 17.2614 16.3285C17.2299 16.3379 17.2012 16.3548 17.1779 16.3778C17.1546 16.4008 17.1374 16.4291 17.1279 16.4603C17.1184 16.4914 17.1169 16.5243 17.1235 16.5562L18.8207 24.415C18.8288 24.4532 18.8483 24.4882 18.8767 24.5154C18.905 24.5426 18.9409 24.5609 18.9799 24.568C19.0188 24.575 19.0589 24.5704 19.0952 24.5549C19.1315 24.5393 19.1623 24.5135 19.1836 24.4806L20.6457 22.1905L24.7354 26.2259Z" stroke="#B1B1B1" stroke-width="1.5"/>
</svg>
